<svg width="32" height="32" viewBox="0 0 32 32" fill="none" xmlns="http://www.w3.org/2000/svg">
<path d="M16 29C13.4288 29 10.9154 28.2376 8.77759 26.8091C6.63975 25.3806 4.97351 23.3503 3.98957 20.9749C3.00563 18.5994 2.74819 15.9856 3.2498 13.4638C3.75141 10.9421 4.98953 8.62569 6.80762 6.80761C8.6257 4.98953 10.9421 3.7514 13.4638 3.24979C15.9856 2.74818 18.5995 3.00563 20.9749 3.98957C23.3503 4.97351 25.3807 6.63975 26.8091 8.77759C28.2376 10.9154 29 13.4288 29 16C29 19.4478 27.6304 22.7544 25.1924 25.1924C22.7544 27.6304 19.4478 29 16 29V29ZM16 5C13.8244 5 11.6977 5.64514 9.88873 6.85383C8.07979 8.06253 6.66989 9.7805 5.83733 11.7905C5.00477 13.8005 4.78693 16.0122 5.21137 18.146C5.63581 20.2798 6.68345 22.2398 8.22183 23.7782C9.76021 25.3166 11.7202 26.3642 13.854 26.7886C15.9878 27.2131 18.1995 26.9952 20.2095 26.1627C22.2195 25.3301 23.9375 23.9202 25.1462 22.1113C26.3549 20.3023 27 18.1756 27 16C27 13.0826 25.8411 10.2847 23.7782 8.22183C21.7153 6.15893 18.9174 5 16 5Z" fill="white"/>
<path d="M19.9823 21.2238C19.7165 21.2253 19.461 21.1209 19.2723 20.9338L15.29 16.71C15.1028 16.5213 14.9985 16.2658 15 16V8C15 6.66667 17 6.66667 17 8V15.59L20.6923 19.5138C21.0867 19.9049 21.0867 20.5426 20.6923 20.9338C20.5036 21.1209 20.2481 21.2253 19.9823 21.2238V21.2238Z" fill="white"/>
</svg>
