<svg width="16" height="13" viewBox="0 0 16 13" fill="none" xmlns="http://www.w3.org/2000/svg">
<path d="M7.89062 7.64844V4.98438C7.89062 4.26042 7.80729 3.61979 7.64062 3.0625C7.47396 2.5 7.23438 2.02604 6.92188 1.64062C6.60417 1.25521 6.21615 0.963542 5.75781 0.765625C5.30469 0.5625 4.78646 0.460938 4.20312 0.460938C3.625 0.460938 3.10677 0.5625 2.64844 0.765625C2.19531 0.963542 1.8125 1.25521 1.5 1.64062C1.18229 2.02604 0.940104 2.5 0.773438 3.0625C0.606771 3.61979 0.523438 4.26042 0.523438 4.98438V7.64844C0.523438 8.3724 0.606771 9.01562 0.773438 9.57812C0.940104 10.1354 1.18229 10.6042 1.5 10.9844C1.81771 11.375 2.20573 11.6693 2.66406 11.8672C3.1224 12.0599 3.64062 12.1562 4.21875 12.1562C4.80208 12.1562 5.32031 12.0573 5.77344 11.8594C6.22656 11.6615 6.60938 11.3698 6.92188 10.9844C7.23438 10.6042 7.47396 10.1354 7.64062 9.57812C7.80729 9.01562 7.89062 8.3724 7.89062 7.64844ZM1.97656 7.35938C1.97656 7.22396 1.97656 7.09115 1.97656 6.96094C1.97656 6.83073 1.97656 6.70052 1.97656 6.57031V4.66406C1.97656 4.13281 2.02865 3.66667 2.13281 3.26562C2.24219 2.85938 2.40625 2.52865 2.625 2.27344C2.80729 2.07031 3.02865 1.91667 3.28906 1.8125C3.55469 1.70312 3.85938 1.64844 4.20312 1.64844C4.54167 1.64844 4.83854 1.69792 5.09375 1.79688C5.35417 1.89583 5.57292 2.04427 5.75 2.24219C5.93229 2.4349 6.07552 2.67708 6.17969 2.96875C6.28906 3.25521 6.36458 3.58594 6.40625 3.96094L1.97656 7.35938ZM6.4375 7.95312C6.4375 8.51042 6.38021 8.99479 6.26562 9.40625C6.15625 9.81771 5.98177 10.151 5.74219 10.4062C5.5651 10.5938 5.34896 10.737 5.09375 10.8359C4.83854 10.9349 4.54688 10.9844 4.21875 10.9844C3.90625 10.9844 3.625 10.9401 3.375 10.8516C3.125 10.7578 2.91146 10.6224 2.73438 10.4453C2.54167 10.2578 2.38542 10.0208 2.26562 9.73438C2.14583 9.44271 2.0625 9.10677 2.01562 8.72656L6.4375 5.34375C6.4375 5.48958 6.4375 5.67448 6.4375 5.89844C6.4375 6.11719 6.4375 6.26562 6.4375 6.34375V7.95312ZM15.0469 12V0.625H14.9297L10.625 2.28125V3.60156L13.6016 2.46875V12H15.0469Z" fill="white"/>
</svg>
