<svg width="16" height="14" viewBox="0 0 16 14" fill="none" xmlns="http://www.w3.org/2000/svg">
<path d="M0.225586 14L3.8252 8.87891L0.494629 4.14746H2.58203L4.09424 6.45752C4.37874 6.89665 4.60758 7.26465 4.78076 7.56152C5.0529 7.15332 5.30339 6.7915 5.53223 6.47607L7.19287 4.14746H9.1875L5.78271 8.78613L9.44727 14H7.39697L5.37451 10.9385L4.83643 10.1128L2.24805 14H0.225586ZM9.81836 7.19971C9.85547 6.84717 10.0008 6.49463 10.2544 6.14209C10.644 5.61019 11.2842 5.02262 12.1748 4.37939C13.0654 3.72998 13.5942 3.3125 13.7612 3.12695C13.9901 2.87337 14.1045 2.61361 14.1045 2.34766C14.1045 2.05078 13.9963 1.80648 13.7798 1.61475C13.5633 1.42301 13.2448 1.32715 12.8242 1.32715C12.416 1.32715 12.1099 1.40137 11.9058 1.5498C11.7078 1.69206 11.5439 1.97038 11.4141 2.38477L10.0132 2.23633C10.1925 1.5498 10.5018 1.04574 10.9409 0.724121C11.3862 0.396322 12.0233 0.232422 12.8521 0.232422C13.786 0.232422 14.4694 0.414876 14.9023 0.779785C15.3415 1.14469 15.561 1.59001 15.561 2.11572C15.561 2.63525 15.3786 3.12695 15.0137 3.59082C14.7354 3.93717 14.1014 4.46598 13.1118 5.17725C12.5985 5.55452 12.2336 5.85449 12.0171 6.07715H15.5981V7.19971H9.81836Z" fill="white"/>
</svg>
