<svg width="16" height="16" viewBox="0 0 16 16" fill="none" xmlns="http://www.w3.org/2000/svg">
<path d="M4.57812 9.10547H2.45703V7.51758H4.57812C4.86719 7.51758 5.10156 7.46875 5.28125 7.37109C5.46094 7.27344 5.5918 7.13867 5.67383 6.9668C5.75977 6.79102 5.80273 6.59375 5.80273 6.375C5.80273 6.14062 5.75977 5.92383 5.67383 5.72461C5.5918 5.52539 5.46094 5.36523 5.28125 5.24414C5.10156 5.11914 4.86719 5.05664 4.57812 5.05664H3.23047V12H1.17383V3.46875H4.57812C5.26172 3.46875 5.84961 3.59375 6.3418 3.84375C6.83789 4.09375 7.21875 4.4375 7.48438 4.875C7.75 5.30859 7.88281 5.80469 7.88281 6.36328C7.88281 6.91406 7.75 7.39453 7.48438 7.80469C7.21875 8.21484 6.83789 8.53516 6.3418 8.76562C5.84961 8.99219 5.26172 9.10547 4.57812 9.10547ZM11.5625 5.26172L9.48242 12H7.27344L10.4082 3.46875H11.8086L11.5625 5.26172ZM13.2852 12L11.1992 5.26172L10.9297 3.46875H12.3477L15.5 12H13.2852ZM13.2031 8.81836V10.4062H8.82617V8.81836H13.2031Z" fill="white"/>
</svg>
