<svg width="16" height="10" viewBox="0 0 16 10" fill="none" xmlns="http://www.w3.org/2000/svg">
<path d="M4.05664 6.10547H1.93555V4.51758H4.05664C4.3457 4.51758 4.58008 4.46875 4.75977 4.37109C4.93945 4.27344 5.07031 4.13867 5.15234 3.9668C5.23828 3.79102 5.28125 3.59375 5.28125 3.375C5.28125 3.14062 5.23828 2.92383 5.15234 2.72461C5.07031 2.52539 4.93945 2.36523 4.75977 2.24414C4.58008 2.11914 4.3457 2.05664 4.05664 2.05664H2.70898V9H0.652344V0.46875H4.05664C4.74023 0.46875 5.32812 0.59375 5.82031 0.84375C6.31641 1.09375 6.69727 1.4375 6.96289 1.875C7.22852 2.30859 7.36133 2.80469 7.36133 3.36328C7.36133 3.91406 7.22852 4.39453 6.96289 4.80469C6.69727 5.21484 6.31641 5.53516 5.82031 5.76562C5.32812 5.99219 4.74023 6.10547 4.05664 6.10547ZM15.4473 4.44141V7.94531C15.3027 8.10547 15.0801 8.27734 14.7793 8.46094C14.4824 8.64062 14.1074 8.79492 13.6543 8.92383C13.2012 9.05273 12.668 9.11719 12.0547 9.11719C11.4883 9.11719 10.9746 9.02734 10.5137 8.84766C10.0527 8.66406 9.65625 8.39648 9.32422 8.04492C8.99609 7.68945 8.74219 7.25586 8.5625 6.74414C8.38672 6.22852 8.29883 5.63867 8.29883 4.97461V4.5C8.29883 3.83594 8.38867 3.24609 8.56836 2.73047C8.74805 2.21484 9 1.78125 9.32422 1.42969C9.65234 1.07422 10.0371 0.804687 10.4785 0.621094C10.9238 0.4375 11.4121 0.345703 11.9434 0.345703C12.7285 0.345703 13.3672 0.470703 13.8594 0.720703C14.3516 0.966797 14.7246 1.30859 14.9785 1.74609C15.2324 2.17969 15.3867 2.68164 15.4414 3.25195H13.4668C13.4277 2.9707 13.3535 2.73242 13.2441 2.53711C13.1387 2.33789 12.9863 2.1875 12.7871 2.08594C12.5879 1.98047 12.3301 1.92773 12.0137 1.92773C11.7676 1.92773 11.543 1.98047 11.3398 2.08594C11.1406 2.19141 10.9707 2.35156 10.8301 2.56641C10.6895 2.77734 10.5801 3.04297 10.502 3.36328C10.4277 3.68359 10.3906 4.05859 10.3906 4.48828V4.97461C10.3906 5.40039 10.4258 5.77344 10.4961 6.09375C10.5703 6.41406 10.6797 6.68164 10.8242 6.89648C10.9727 7.10742 11.1602 7.26758 11.3867 7.37695C11.6172 7.48242 11.8887 7.53516 12.2012 7.53516C12.4199 7.53516 12.6074 7.51758 12.7637 7.48242C12.9199 7.44336 13.0488 7.39648 13.1504 7.3418C13.2559 7.2832 13.3359 7.22852 13.3906 7.17773V5.85352H11.9609V4.44141H15.4473Z" fill="white"/>
</svg>
