<svg width="30" height="31" viewBox="0 0 30 31" fill="none" xmlns="http://www.w3.org/2000/svg">
<g id="one-divided-by">
<path id="Vector" d="M12.8429 12.5C12.5829 12.5 12.3779 12.43 12.2279 12.29C12.0879 12.14 12.0179 11.94 12.0179 11.69C12.0179 11.43 12.0879 11.235 12.2279 11.105C12.3779 10.975 12.5829 10.91 12.8429 10.91H14.5229V3.54499H15.453L13.2479 4.87999C13.0579 4.98999 12.8779 5.03499 12.7079 5.01499C12.5479 4.98499 12.4079 4.91499 12.2879 4.80499C12.1779 4.68499 12.1029 4.545 12.0629 4.38499C12.0229 4.22499 12.0329 4.065 12.0929 3.90499C12.1629 3.735 12.2929 3.59499 12.4829 3.48499L14.5529 2.23999C14.7529 2.11999 14.9529 2.01999 15.153 1.93999C15.3529 1.84999 15.5379 1.80499 15.708 1.80499C15.918 1.80499 16.0929 1.86499 16.233 1.98499C16.3729 2.09499 16.443 2.28 16.443 2.53999V10.91H17.973C18.2329 10.91 18.4329 10.975 18.573 11.105C18.723 11.235 18.798 11.43 18.798 11.69C18.798 11.95 18.723 12.15 18.573 12.29C18.4329 12.43 18.2329 12.5 17.973 12.5H12.8429Z" fill="white"/>
<path id="Vector_2" d="M11.6755 27.608C11.5195 27.608 11.3815 27.56 11.2615 27.464C11.1415 27.368 11.0755 27.242 11.0635 27.086C11.0635 26.918 11.1415 26.744 11.2975 26.564L14.4475 22.604V23.36L11.4955 19.67C11.3395 19.478 11.2615 19.304 11.2615 19.148C11.2735 18.992 11.3395 18.866 11.4595 18.77C11.5795 18.674 11.7175 18.626 11.8735 18.626C12.0535 18.626 12.2035 18.662 12.3235 18.734C12.4555 18.794 12.5755 18.896 12.6835 19.04L15.2575 22.298H14.7535L17.3455 19.04C17.4535 18.896 17.5675 18.794 17.6875 18.734C17.8075 18.662 17.9575 18.626 18.1375 18.626C18.3055 18.626 18.4435 18.674 18.5515 18.77C18.6715 18.866 18.7315 18.998 18.7315 19.166C18.7435 19.322 18.6715 19.496 18.5155 19.688L15.5815 23.324V22.658L18.7315 26.564C18.8755 26.744 18.9415 26.918 18.9295 27.086C18.9295 27.242 18.8695 27.368 18.7495 27.464C18.6295 27.56 18.4855 27.608 18.3175 27.608C18.1495 27.608 17.9995 27.572 17.8675 27.5C17.7475 27.44 17.6275 27.338 17.5075 27.194L14.7355 23.702H15.2575L12.4855 27.194C12.3775 27.326 12.2575 27.428 12.1255 27.5C12.0055 27.572 11.8555 27.608 11.6755 27.608Z" fill="white"/>
<path id="Vector_3" d="M7.5 14.75H22.5" stroke="white" stroke-linecap="round"/>
</g>
</svg>
