<svg xmlns="http://www.w3.org/2000/svg" width="32" height="31" viewBox="0 0 32 31" fill="none">
  <path d="M6.06863 20.2001L12.4412 9.16254" stroke="white" stroke-width="2" stroke-linecap="round" stroke-linejoin="round"/>
  <path d="M12.5686 9.07367H28.5" stroke="white" stroke-width="2" stroke-linecap="round" stroke-linejoin="round"/>
  <path d="M2.5 12.7696L6.0049 20.2855" stroke="white" stroke-width="2" stroke-linecap="round"/>
  <path d="M16.8744 21.6C16.581 21.6 16.3344 21.52 16.1344 21.36C15.9477 21.1867 15.8477 20.9667 15.8344 20.7C15.8344 20.4333 15.9477 20.1533 16.1744 19.86L19.4144 15.86V17.04L16.3744 13.3C16.1344 13.0067 16.021 12.7267 16.0344 12.46C16.0477 12.1933 16.1477 11.98 16.3344 11.82C16.5344 11.6467 16.781 11.56 17.0744 11.56C17.381 11.56 17.6344 11.6133 17.8344 11.72C18.0477 11.8267 18.241 11.9933 18.4144 12.22L20.8144 15.3H19.9344L22.3544 12.22C22.541 11.9933 22.7344 11.8267 22.9344 11.72C23.1344 11.6133 23.381 11.56 23.6744 11.56C23.981 11.56 24.2277 11.6467 24.4144 11.82C24.601 11.9933 24.6944 12.2133 24.6944 12.48C24.7077 12.7467 24.5944 13.0267 24.3544 13.32L21.3344 17.02V15.9L24.5744 19.86C24.8144 20.14 24.9277 20.4133 24.9144 20.68C24.901 20.9467 24.7944 21.1667 24.5944 21.34C24.4077 21.5133 24.161 21.6 23.8544 21.6C23.561 21.6 23.3144 21.5467 23.1144 21.44C22.9144 21.3333 22.721 21.1667 22.5344 20.94L19.9344 17.66H20.7744L18.1944 20.94C18.021 21.1533 17.8344 21.32 17.6344 21.44C17.4344 21.5467 17.181 21.6 16.8744 21.6Z" fill="white"/>
</svg>